<mxfile host="app.diagrams.net" agent="Mozilla/5.0 (Windows NT 10.0; Win64; x64) AppleWebKit/537.36 (KHTML, like Gecko) Chrome/139.0.0.0 Safari/537.36" version="28.2.5">
  <diagram name="System Architecture" id="V6cYKS4y4bfh24JUbG7k">
    <mxGraphModel dx="1231" dy="639" grid="1" gridSize="10" guides="1" tooltips="1" connect="1" arrows="1" fold="1" page="1" pageScale="1" pageWidth="850" pageHeight="1100" math="0" shadow="0">
      <root>
        <mxCell id="0" />
        <mxCell id="1" parent="0" />
        <mxCell id="CSi2BbDhjq5Ke8ilKaX0-25" value="" style="ellipse;whiteSpace=wrap;html=1;fillColor=none;dashed=1;dashPattern=8 8;" vertex="1" parent="1">
          <mxGeometry x="420" y="322" width="660" height="220" as="geometry" />
        </mxCell>
        <mxCell id="CSi2BbDhjq5Ke8ilKaX0-15" value="Data Preprocessing &amp; Feature Engineering" style="shape=rectangle;rounded=1;fillColor=#ffe6cc;strokeColor=#d79b00;" vertex="1" parent="1">
          <mxGeometry x="320" y="402.5" width="240" height="60" as="geometry" />
        </mxCell>
        <mxCell id="CSi2BbDhjq5Ke8ilKaX0-17" value="Attrition Risk Predictions (Stay/Leave)" style="shape=rectangle;rounded=1;fillColor=#d5e8d4;strokeColor=#82b366;" vertex="1" parent="1">
          <mxGeometry x="920" y="402.5" width="240" height="60" as="geometry" />
        </mxCell>
        <mxCell id="CSi2BbDhjq5Ke8ilKaX0-19" value="Feedback: New Data &amp; Outcomes" style="text;strokeColor=none;fillColor=none;align=center;verticalAlign=middle;fontSize=16;fontStyle=1" vertex="1" parent="1">
          <mxGeometry x="600" y="342.5" width="260" height="30" as="geometry" />
        </mxCell>
        <mxCell id="CSi2BbDhjq5Ke8ilKaX0-20" style="endArrow=block;endFill=1;exitX=0.5;exitY=0;exitDx=0;exitDy=0;exitPerimeter=0;" edge="1" parent="1" source="CSi2BbDhjq5Ke8ilKaX0-26" target="CSi2BbDhjq5Ke8ilKaX0-15">
          <mxGeometry relative="1" as="geometry">
            <mxPoint x="440" y="590" as="sourcePoint" />
          </mxGeometry>
        </mxCell>
        <mxCell id="CSi2BbDhjq5Ke8ilKaX0-21" style="endArrow=block;endFill=1;" edge="1" parent="1" source="CSi2BbDhjq5Ke8ilKaX0-15" target="CSi2BbDhjq5Ke8ilKaX0-28">
          <mxGeometry relative="1" as="geometry">
            <mxPoint x="620.0000000000002" y="432.5" as="targetPoint" />
          </mxGeometry>
        </mxCell>
        <mxCell id="CSi2BbDhjq5Ke8ilKaX0-22" style="endArrow=block;endFill=1;" edge="1" parent="1" source="CSi2BbDhjq5Ke8ilKaX0-28" target="CSi2BbDhjq5Ke8ilKaX0-17">
          <mxGeometry relative="1" as="geometry">
            <mxPoint x="840" y="432.5" as="sourcePoint" />
          </mxGeometry>
        </mxCell>
        <mxCell id="CSi2BbDhjq5Ke8ilKaX0-23" style="endArrow=block;endFill=1;" edge="1" parent="1" source="CSi2BbDhjq5Ke8ilKaX0-17" target="CSi2BbDhjq5Ke8ilKaX0-30">
          <mxGeometry relative="1" as="geometry">
            <mxPoint x="1040" y="590" as="targetPoint" />
          </mxGeometry>
        </mxCell>
        <mxCell id="CSi2BbDhjq5Ke8ilKaX0-26" value="" style="shape=cylinder3;whiteSpace=wrap;html=1;boundedLbl=1;backgroundOutline=1;size=15;" vertex="1" parent="1">
          <mxGeometry x="410" y="530" width="60" height="80" as="geometry" />
        </mxCell>
        <mxCell id="CSi2BbDhjq5Ke8ilKaX0-27" value="&lt;span style=&quot;font-family: Helvetica; font-size: 12px; font-style: normal; font-variant-ligatures: normal; font-variant-caps: normal; font-weight: 400; letter-spacing: normal; orphans: 2; text-indent: 0px; text-transform: none; widows: 2; word-spacing: 0px; -webkit-text-stroke-width: 0px; white-space: nowrap; text-decoration-thickness: initial; text-decoration-style: initial; text-decoration-color: initial; float: none; display: inline !important;&quot;&gt;HR Data Sources (Employee Records, Surveys)&lt;/span&gt;" style="text;whiteSpace=wrap;html=1;labelBackgroundColor=none;fontColor=#000000;align=center;" vertex="1" parent="1">
          <mxGeometry x="310" y="615" width="290" height="25" as="geometry" />
        </mxCell>
        <mxCell id="CSi2BbDhjq5Ke8ilKaX0-28" value="&lt;div&gt;&lt;br&gt;&lt;/div&gt;" style="sketch=0;outlineConnect=0;fontColor=#232F3E;gradientColor=none;fillColor=#1A1A1A;strokeColor=none;dashed=0;verticalLabelPosition=bottom;verticalAlign=top;align=center;html=1;fontSize=12;fontStyle=0;aspect=fixed;pointerEvents=1;shape=mxgraph.aws4.sagemaker_model;" vertex="1" parent="1">
          <mxGeometry x="691" y="393.5" width="78" height="78" as="geometry" />
        </mxCell>
        <mxCell id="CSi2BbDhjq5Ke8ilKaX0-29" value="&lt;br&gt;&lt;span style=&quot;color: rgb(0, 0, 0); text-wrap-mode: nowrap; float: none; display: inline !important;&quot;&gt;Predictive Model (Attrition Classifier)&lt;/span&gt;&lt;div&gt;&lt;br style=&quot;color: rgb(35, 47, 62); text-wrap-mode: nowrap;&quot;&gt;&lt;/div&gt;" style="text;html=1;align=center;verticalAlign=middle;whiteSpace=wrap;rounded=0;" vertex="1" parent="1">
          <mxGeometry x="700" y="471.5" width="60" height="30" as="geometry" />
        </mxCell>
        <mxCell id="CSi2BbDhjq5Ke8ilKaX0-30" value="" style="sketch=0;pointerEvents=1;shadow=0;dashed=0;html=1;strokeColor=none;fillColor=#434445;aspect=fixed;labelPosition=center;verticalLabelPosition=bottom;verticalAlign=top;align=center;outlineConnect=0;shape=mxgraph.vvd.nsx_dashboard;" vertex="1" parent="1">
          <mxGeometry x="999.14" y="530" width="81.72" height="76" as="geometry" />
        </mxCell>
        <mxCell id="CSi2BbDhjq5Ke8ilKaX0-31" value="&lt;div&gt;&lt;span style=&quot;text-wrap-mode: nowrap;&quot;&gt;HR Dashboard &amp;amp; Retention Strategies&lt;/span&gt;&lt;/div&gt;" style="text;html=1;align=center;verticalAlign=middle;whiteSpace=wrap;rounded=0;" vertex="1" parent="1">
          <mxGeometry x="1010" y="615" width="60" height="30" as="geometry" />
        </mxCell>
      </root>
    </mxGraphModel>
  </diagram>
</mxfile>
